Hanif_Medium_2_5_grf.mot
version=1
nRows=42
nColumns=19
inDegrees=yes
endheader
time	right_ground_force_vx	right_ground_force_vy	right_ground_force_vz	right_ground_force_px	right_ground_force_py	right_ground_force_pz	right_ground_torque_x	right_ground_torque_y	right_ground_torque_z	left_ground_force_vx	left_ground_force_vy	left_ground_force_vz	left_ground_force_px	left_ground_force_py	left_ground_force_pz	left_ground_torque_x	left_ground_torque_y	left_ground_torque_z
1.250000	1.595910	294.295000	23.895300	0.188974	0.000000	-1.458820	-13.863400	4.147370	-2.935610	-5.092030	292.433000	-21.684000	0.209617	0.000000	-0.969470	19.519600	-4.131950	3.159300
1.255000	1.719360	294.724000	24.064800	0.188677	0.000000	-1.459340	-13.728600	4.166870	-3.025790	-4.729170	294.166000	-21.859100	0.210165	0.000000	-0.968969	19.479900	-4.078780	3.332900
1.260000	2.201050	293.055000	24.215700	0.188169	0.000000	-1.458280	-13.958300	4.059780	-3.163960	-4.762300	291.972000	-21.572100	0.210539	0.000000	-0.970274	19.716500	-4.009640	3.413890
1.265000	1.703970	294.463000	23.922400	0.188341	0.000000	-1.458520	-13.960200	4.192610	-3.121660	-4.889060	292.391000	-21.866100	0.210167	0.000000	-0.969908	19.641100	-4.099080	3.320360
1.270000	1.359320	292.850000	24.376900	0.188598	0.000000	-1.458270	-13.959300	4.141500	-3.023000	-4.797160	292.137000	-21.618800	0.210740	0.000000	-0.970316	19.741300	-4.057310	3.478990
1.275000	1.450980	295.154000	24.444000	0.188634	0.000000	-1.457980	-14.154600	4.164770	-3.038440	-4.464430	292.673000	-22.499400	0.210707	0.000000	-0.969808	19.623800	-4.097490	3.490100
1.280000	1.299730	295.308000	24.831700	0.188753	0.000000	-1.457540	-14.293500	4.193210	-2.997610	-4.922920	291.717000	-22.146200	0.210433	0.000000	-0.969713	19.540100	-4.108940	3.397840
1.285000	0.994168	296.950000	24.895400	0.189005	0.000000	-1.458190	-14.183200	4.176660	-2.941820	-4.566570	290.838000	-22.374300	0.210943	0.000000	-0.970041	19.570900	-4.096070	3.540170
1.290000	1.061570	295.453000	25.210400	0.188639	0.000000	-1.457900	-14.197800	4.204760	-3.026670	-4.807330	293.296000	-22.585700	0.210828	0.000000	-0.969562	19.597900	-4.046100	3.530720
1.295000	1.111870	296.953000	25.443600	0.189191	0.000000	-1.458220	-14.175300	4.157080	-2.881650	-4.368960	291.700000	-23.002000	0.210788	0.000000	-0.970163	19.660300	-4.046500	3.508730
1.300000	0.968035	297.467000	26.246000	0.189327	0.000000	-1.458060	-14.247800	4.220930	-2.831250	-4.051980	292.528000	-23.444800	0.210817	0.000000	-0.970103	19.694400	-4.159450	3.539630
1.305000	1.776840	297.528000	26.483200	0.188925	0.000000	-1.458160	-14.210700	4.393180	-2.937670	-3.621250	294.117000	-23.549800	0.210898	0.000000	-0.969948	19.748100	-4.170660	3.579280
1.310000	2.266570	299.897000	27.196400	0.189129	0.000000	-1.457180	-14.609300	4.431290	-2.895130	-3.276100	294.974000	-23.888000	0.210427	0.000000	-0.970225	19.881100	-4.157880	3.450280
1.315000	2.023640	301.096000	27.609700	0.188883	0.000000	-1.457880	-14.461300	4.457130	-2.975510	-3.181040	294.881000	-24.042600	0.211250	0.000000	-0.970248	19.879900	-4.129660	3.693750
1.320000	2.104620	300.835000	27.974000	0.189479	0.000000	-1.457720	-14.496900	4.413520	-2.791540	-3.519000	295.374000	-24.719200	0.211091	0.000000	-0.971065	20.160300	-4.164900	3.667440
1.325000	1.917870	300.815000	28.208000	0.189452	0.000000	-1.457380	-14.598600	4.472580	-2.790100	-3.181150	296.106000	-25.001800	0.211899	0.000000	-0.970481	20.032000	-4.172650	3.918910
1.330000	2.459550	300.669000	28.869600	0.189516	0.000000	-1.457710	-14.486100	4.524620	-2.758130	-3.328440	297.406000	-25.462700	0.211386	0.000000	-0.970326	20.076600	-4.254710	3.794550
1.335000	2.231520	301.877000	29.398800	0.190244	0.000000	-1.457170	-14.710500	4.622790	-2.533440	-3.351550	298.331000	-26.004600	0.211814	0.000000	-0.971043	20.352700	-4.214650	3.938650
1.340000	2.262170	304.161000	29.566500	0.190460	0.000000	-1.457380	-14.756700	4.613090	-2.491390	-3.313690	300.562000	-25.880900	0.212881	0.000000	-0.970294	20.279400	-4.283160	4.288180
1.345000	2.411310	305.891000	30.202100	0.190227	0.000000	-1.457020	-14.949500	4.719320	-2.564410	-3.524440	301.219000	-26.505900	0.213070	0.000000	-0.970897	20.508000	-4.207800	4.358830
1.350000	2.845560	309.165000	31.323500	0.191014	0.000000	-1.457480	-14.961400	4.707530	-2.343820	-3.398710	304.279000	-27.174500	0.212734	0.000000	-0.971336	20.846600	-4.211520	4.302460
1.355000	2.914770	312.361000	32.559100	0.191066	0.000000	-1.456560	-15.401400	4.867280	-2.328760	-3.950570	307.128000	-27.865900	0.213451	0.000000	-0.970550	20.809200	-4.232300	4.573340
1.360000	3.812460	317.019000	33.280500	0.192416	0.000000	-1.456080	-15.771000	4.983440	-1.927680	-3.994350	308.965000	-28.513300	0.213848	0.000000	-0.970777	21.003900	-4.215980	4.729000
1.365000	3.924090	321.577000	34.270100	0.192147	0.000000	-1.456570	-15.838600	5.029050	-2.038620	-3.717260	312.759000	-29.068600	0.214085	0.000000	-0.970969	21.316000	-4.229600	4.859880
1.370000	4.396680	324.918000	35.662800	0.192712	0.000000	-1.456310	-16.082400	5.081780	-1.862880	-3.442840	315.254000	-30.230700	0.214586	0.000000	-0.970870	21.450900	-4.335610	5.078800
1.375000	4.437390	330.200000	36.323500	0.193187	0.000000	-1.456410	-16.310600	5.128500	-1.736810	-3.576190	318.957000	-31.280000	0.214507	0.000000	-0.971557	21.924300	-4.424690	5.129470
1.380000	4.927120	335.107000	37.862400	0.194175	0.000000	-1.456160	-16.630800	5.217100	-1.415240	-3.475830	322.975000	-32.149700	0.214910	0.000000	-0.971246	22.096800	-4.386930	5.323580
1.385000	5.061230	339.923000	38.996100	0.194540	0.000000	-1.455870	-16.970300	5.233460	-1.309250	-3.903150	325.680000	-33.269300	0.216820	0.000000	-0.972283	22.626800	-4.391490	6.011390
1.390000	5.036340	343.979000	40.127300	0.195158	0.000000	-1.454400	-17.675700	5.394110	-1.089390	-4.379790	329.789000	-33.963100	0.216936	0.000000	-0.971926	22.799900	-4.310370	6.119500
1.395000	5.165140	348.827000	41.149900	0.195723	0.000000	-1.454650	-17.839200	5.361900	-0.911328	-4.418780	332.167000	-34.794700	0.216852	0.000000	-0.972593	23.185600	-4.304420	6.142300
1.400000	5.759540	354.297000	41.627200	0.196711	0.000000	-1.454160	-18.284100	5.504770	-0.569675	-5.098030	335.826000	-35.771100	0.217792	0.000000	-0.972956	23.572000	-4.220710	6.530350
1.405000	6.349650	358.995000	42.949200	0.196931	0.000000	-1.454570	-18.370300	5.614140	-0.484881	-4.991560	339.770000	-36.860500	0.217924	0.000000	-0.972151	23.571800	-4.198920	6.654610
1.410000	6.948440	360.766000	43.987000	0.197447	0.000000	-1.454040	-18.646000	5.647170	-0.290308	-5.405730	342.768000	-37.333400	0.218052	0.000000	-0.971895	23.698600	-4.251660	6.764790
1.415000	7.005990	365.666000	44.468000	0.197779	0.000000	-1.454350	-18.787300	5.598220	-0.187316	-5.565950	343.637000	-38.221200	0.219023	0.000000	-0.972171	23.854800	-4.147500	7.121900
1.420000	7.743830	370.046000	45.269700	0.198831	0.000000	-1.453780	-19.215300	5.680260	0.206295	-4.586140	345.578000	-39.614800	0.218980	0.000000	-0.972835	24.203400	-4.193790	7.162560
1.425000	7.769790	372.057000	46.432900	0.198783	0.000000	-1.453720	-19.343900	5.636780	0.193062	-4.227600	349.394000	-40.516400	0.218838	0.000000	-0.971930	24.145800	-4.081930	7.177520
1.430000	7.842390	374.641000	47.104300	0.199610	0.000000	-1.452520	-19.927600	5.614460	0.504598	-4.463380	350.409000	-41.007100	0.219585	0.000000	-0.972317	24.355300	-4.064590	7.468640
1.435000	8.199900	377.250000	47.623500	0.199951	0.000000	-1.452470	-20.082300	5.596810	0.632381	-4.245380	352.817000	-41.895800	0.220025	0.000000	-0.972863	24.711600	-4.074570	7.683940
1.440000	8.338240	378.740000	48.247500	0.199919	0.000000	-1.452830	-20.025600	5.586490	0.624133	-4.683330	354.324000	-42.677700	0.219909	0.000000	-0.973090	24.902800	-3.970670	7.674460
1.445000	8.336070	380.299000	48.553300	0.200486	0.000000	-1.452140	-20.372700	5.516830	0.834789	-5.020070	357.705000	-43.032800	0.219583	0.000000	-0.971970	24.742800	-3.944570	7.622470
1.450000	9.045620	380.665000	49.188400	0.200524	0.000000	-1.452030	-20.421900	5.612990	0.865201	-5.241080	356.304000	-43.705900	0.220119	0.000000	-0.972759	24.931500	-3.934970	7.803960
1.455000	9.409770	381.748000	49.144800	0.201109	0.000000	-1.451780	-20.573100	5.509980	1.074190	-5.710150	358.769000	-44.710400	0.219360	0.000000	-0.972708	25.091100	-3.891750	7.588310
